<svg t="1669045322665" class="icon" viewBox="0 0 1024 1024" version="1.1" xmlns="http://www.w3.org/2000/svg" p-id="13321" width="200" height="200"><path d="M336.8 336.8h525.5a65.7 65.7 0 0 0 65.7-65.6V161.7A65.7 65.7 0 0 0 862.3 96H336.8a65.7 65.7 0 0 0-65.6 65.7v21.9H161.7A65.7 65.7 0 0 0 96 249.3v229.9a65.7 65.7 0 0 0 65.7 65.6h251.8l75.3 75.3a32.7 32.7 0 0 0 46.4 0l75.3-75.3h251.8v229.9H752.8v-21.9a65.6 65.6 0 0 0-65.6-65.6H161.7A65.7 65.7 0 0 0 96 752.8v109.5a65.7 65.7 0 0 0 65.7 65.7h525.5a65.7 65.7 0 0 0 65.6-65.7v-21.9h109.5a65.7 65.7 0 0 0 65.7-65.7V544.8a65.7 65.7 0 0 0-65.7-65.6H610.5l-75.3-75.3a32.7 32.7 0 0 0-46.4 0l-75.3 75.3H161.7V249.3h109.5v21.9a65.6 65.6 0 0 0 65.6 65.6z m0-175.1h525.5v109.5H336.8z m350.4 700.6H161.7V752.8h525.5z" p-id="13322" fill="#1296db"></path></svg>