<svg t="1669045125543" class="icon" viewBox="0 0 1024 1024" version="1.1" xmlns="http://www.w3.org/2000/svg" p-id="9298" width="200" height="200"><path d="M640 970.666667H384c-231.765333 0-330.666667-98.901333-330.666667-330.666667V384c0-231.765333 98.901333-330.666667 330.666667-330.666667h256c231.765333 0 330.666667 98.901333 330.666667 330.666667v256c0 231.765333-98.901333 330.666667-330.666667 330.666667z m-256-853.333334C187.136 117.333333 117.333333 187.136 117.333333 384v256c0 196.864 69.802667 266.666667 266.666667 266.666667h256c196.864 0 266.666667-69.802667 266.666667-266.666667V384c0-196.864-69.76-266.666667-266.666667-266.666667z" fill="#13227a" p-id="9299"></path><path d="M593.066667 746.666667a31.658667 31.658667 0 0 1-29.44-19.2 32 32 0 0 1 5.546666-34.56l69.12-76.373334a172.117333 172.117333 0 0 0 44.8-114.346666 154.581333 154.581333 0 0 0-49.493333-113.066667 178.602667 178.602667 0 0 0-243.2 0 154.581333 154.581333 0 0 0-49.493333 113.066667 170.026667 170.026667 0 0 0 44.8 114.346666l69.12 76.373334a32.213333 32.213333 0 0 1-23.893334 53.76H298.666667A32 32 0 0 1 298.666667 682.666667h60.16l-20.906667-23.04a234.965333 234.965333 0 0 1-61.013333-157.44 220.8 220.8 0 0 1 69.546666-159.573334A238.933333 238.933333 0 0 1 512 277.333333a238.933333 238.933333 0 0 1 165.546667 65.28 222.506667 222.506667 0 0 1 69.546666 159.573334 236.586667 236.586667 0 0 1-61.013333 157.44l-20.906667 23.04H725.333333a32 32 0 0 1 0 64z" fill="#13227a" p-id="9300"></path></svg>