<svg t="1669083261613" class="icon" viewBox="0 0 1024 1024" version="1.1" xmlns="http://www.w3.org/2000/svg" p-id="18712" width="200" height="200"><path d="M510.208 213.781l-101.803 34.774L342.7 209.94l168.81-60.608L681.643 211.5l-64.448 37.056-106.966-34.774z m1.28 201.43l101.824-34.816 65.728 38.698-168.832 60.523-170.07-62.08 64.406-37.141 106.944 34.816z m-155.093-51.904l-69.12 33.493L65.62 314.304l225.515-83.37 65.75 38.847-122.411 44.523 121.898 49.003z m434.645-49.003l-122.41-44.523 65.706-38.848 225.557 83.371L738.176 396.8l-69.099-33.493 121.963-49.003zM511.488 608.747L64.96 433.643 64 344.896l447.488 174.933 447.573-172.992v89.43l-447.573 172.48z m1.024 33.664L960 469.376v89.493L512.512 731.285 65.962 556.224l-1.002-88.747 447.552 174.934zM64.939 591.06l447.573 174.934L960 593.003v89.472l-447.488 172.48L65.962 679.85l-1.002-88.768z" fill="#00C1DE" p-id="18713"></path></svg>