<svg t="1669083009866" class="icon" viewBox="0 0 1024 1024" version="1.1" xmlns="http://www.w3.org/2000/svg" p-id="17079" width="200" height="200"><path d="M266.56 372.08h128.16c32 0 56.76 3.16 74.28 9.52 32.32 11.76 53.88 33.36 64.76 64.76 8.16 24.16 12.24 49.96 12.24 77.44 0 27.16-3.92 52.84-11.76 77-7.84 24.76-20.84 43-38.96 54.8-11.48 7.24-24.08 12.16-37.8 14.72-13.76 2.56-34.64 3.84-62.72 3.84H266.56V372.08z m64.32 53.88v194.28h63.84c28.08 0 47.56-6.2 58.4-18.56 6.64-7.84 12-18.88 16.08-33.04 4.08-14.2 6.12-29.28 6.12-45.28 0-17.8-2.44-34.12-7.24-48.92-4.84-14.8-11.16-25.8-19-33.04-11.48-10.24-29.6-15.4-54.32-15.4H330.88zM644.24 565l-79.72-111.4h67.92l46.64 65.2 44.84-65.2h71.56l-82.4 111.4 82.4 109.12h-71.56l-44.84-62.96-46.64 62.96h-71.08l82.88-109.12z" fill="#1296db" p-id="17080"></path><path d="M798.2 952H235.36c-80.32 0-145.64-65.32-145.64-145.64V243.52c0-80.32 65.32-145.64 145.64-145.64h562.84c80.32 0 145.64 65.32 145.64 145.64v562.84c0 80.28-65.36 145.64-145.64 145.64zM235.36 145.88c-53.84 0-97.64 43.8-97.64 97.64v562.84c0 53.84 43.8 97.64 97.64 97.64h562.84c53.84 0 97.64-43.8 97.64-97.64V243.52c0-53.84-43.8-97.64-97.64-97.64H235.36z" fill="#1296db" p-id="17081"></path></svg>