<svg t="1669044614904" class="icon" viewBox="0 0 1024 1024" version="1.1" xmlns="http://www.w3.org/2000/svg" p-id="3962" width="200" height="200"><path d="M249.904 916.011l-32.771 32.751c70.767 20.275 158.719 10.725 250.295-25.202l-39.043-27.334c-65.027 22.386-126.561 29.573-178.481 19.785z m523.658-808.895l32.748-32.771c-71.279-20.406-159.996-10.556-252.32 26.031l42.603 26.017c64.452-22.005 125.436-28.978 176.969-19.277z m-62.153 204.772c51.301 51.321 94.006 106.159 127.164 161.191l24.155-36.8c-33.071-52.517-74.219-104.329-122.812-152.898C569.282 112.722 358.771 33.769 217.133 74.345l32.771 32.771c126.308-23.797 309.438 52.729 461.505 204.772z m184.322 281.126c22.922 65.731 30.322 127.949 20.449 180.378l32.771 32.751c20.51-71.642 10.446-160.895-26.587-253.705l-26.633 40.576z m-84.496 218.051c-31.512 31.515-31.512 82.58 0 114.094 31.515 31.512 82.58 31.512 114.094 0 31.512-31.515 31.512-82.58 0-114.094-31.515-31.511-82.58-31.511-114.094 0z m85.564 85.564c-15.737 15.757-41.28 15.757-57.034 0-15.757-15.734-15.757-41.277 0-57.034 15.754-15.754 41.297-15.754 57.034 0 15.757 15.758 15.757 41.3 0 57.034zM739.915 739.746c170.657-170.633 249.589-381.145 209.036-522.783l-32.771 32.774c23.794 126.305-52.729 309.435-204.772 461.502-53.005 53.005-109.783 96.821-166.628 130.424l35.671 24.967c54.777-33.751 108.868-76.287 159.464-126.884z m71.32-527.687c31.515 31.515 82.58 31.515 114.094 0 31.512-31.512 31.512-82.597 0-114.088-31.515-31.515-82.58-31.515-114.094 0-31.512 31.491-31.512 82.576 0 114.088z m28.53-85.581c15.754-15.737 41.297-15.737 57.034 0 15.757 15.754 15.757 41.297 0 57.057-15.737 15.754-41.28 15.754-57.034 0-15.758-15.76-15.758-41.303 0-57.057zM212.228 811.065c-31.515-31.512-82.597-31.512-114.088 0-31.515 31.515-31.515 82.58 0 114.094 31.491 31.512 82.574 31.512 114.088 0 31.515-31.514 31.515-82.579 0-114.094z m-28.527 85.564c-15.757 15.757-41.3 15.757-57.034 0-15.757-15.734-15.757-41.277 0-57.034 15.734-15.754 41.277-15.754 57.034 0 15.758 15.758 15.758 41.3 0 57.034z m28.527-684.57c31.515-31.512 31.515-82.597 0-114.088-31.515-31.515-82.597-31.515-114.088 0-31.515 31.491-31.515 82.577 0 114.088 31.491 31.515 82.574 31.515 114.088 0z m-85.561-85.581c15.734-15.737 41.277-15.737 57.034 0 15.757 15.754 15.757 41.297 0 57.057-15.757 15.754-41.3 15.754-57.034 0-15.757-15.76-15.757-41.303 0-57.057z m185.39 584.761c-52.028-52.045-95.201-107.715-128.571-163.492l-22.643 39.252c33.05 52.47 74.155 104.221 122.707 152.747 170.637 170.657 381.142 249.589 522.76 209.016l-32.748-32.751c-126.332 23.794-309.441-52.726-461.505-204.772z m-186.201-286.58c-21.45-63.71-28.187-123.943-18.57-174.921l-32.774-32.774c-20.382 71.171-10.594 159.719 25.845 251.872l25.499-44.177z m-18.57 348.734c-23.797-126.332 52.729-309.441 204.772-461.505 50.789-50.768 105.03-93.133 159.484-126.137l-38.1-23.282c-51.493 32.748-102.258 73.257-149.89 120.892C112.891 454.018 33.939 664.523 74.511 806.143l32.775-32.75zM362.32 397.336l-78.05 204.039h35.744l18.57-51.196h85.451l18.57 51.196h35.744l-78.05-204.039H362.32z m-13.73 125.383l32.3-89.453h1.117l32.021 89.453H348.59z m308.478-62.831c0-41.701-24.9-62.552-74.048-62.552h-84.566v204.039h33.417v-78.376h50.591c49.706-0.001 74.606-21.131 74.606-63.111z m-44.028 26.529c-6.842 5.213-17.732 8.005-32.579 8.005h-48.59v-68.509h48.59c14.568 0 25.412 2.513 32.3 8.005 6.842 5.12 10.565 13.683 10.565 25.97s-3.445 21.13-10.286 26.529z m106.161-89.081h-33.464v204.039h33.464V397.336z" fill="#1296db" p-id="3963"></path></svg>