<svg t="1669045057241" class="icon" viewBox="0 0 1024 1024" version="1.1" xmlns="http://www.w3.org/2000/svg" p-id="8681" width="200" height="200"><path d="M512.09999 0.09999L68.843277 234.477102l443.256713 234.277121 443.256713-234.277121L512.09999 0.09999zM180.63236 234.477102L512.09999 59.194219l331.46763 175.182893-331.46763 175.282882-331.46763-175.182892zM68.843277 286.871985l2.099795 513.249878 422.358754 223.878137-2.099795-513.249878L68.843277 286.871985zM123.037985 768.624939l-1.599844-394.761449 317.668977 168.383556 1.599844 394.761449L123.037985 768.624939zM530.898154 1024l422.358755-223.878137 2.099794-513.249878L532.997949 510.750122l-2.099795 513.249878z m54.194708-481.752954l317.668978-168.383556-1.599844 394.761449-317.668978 168.383556 1.599844-394.761449z" fill="#d4237a" p-id="8682"></path></svg>