<svg t="1669045469179" class="icon" viewBox="0 0 1024 1024" version="1.1" xmlns="http://www.w3.org/2000/svg" p-id="13913" width="200" height="200"><path d="M471.078 402.93h82.031c31.576 0 52.572-4.476 62.989-13.428 10.416-8.952 16.438-26.774 18.066-53.467h23.926v207.031h-23.926c-1.628-26.367-7.568-44.108-17.822-53.222-10.254-9.115-31.331-13.672-63.233-13.672h-82.03c-32.553 0-54.037 4.557-64.454 13.672-10.417 9.114-16.276 26.855-17.578 53.222H365.12v-207.03h23.926c1.302 26.366 7.161 44.107 17.578 53.222 10.417 9.114 31.9 13.672 64.453 13.672z m254.883 41.992c0-94.076-19.368-169.108-58.106-225.098-38.737-55.99-90.657-83.984-155.761-83.984-65.756 0-118.083 27.913-156.983 83.74-38.9 55.827-58.35 130.94-58.35 225.342 0 94.076 19.45 168.945 58.35 224.61 38.9 55.664 91.227 83.495 156.983 83.495 65.104 0 117.024-27.831 155.761-83.496 38.738-55.664 58.106-130.533 58.106-224.61zM512.094 100.195c97.656 0 176.595 31.494 236.816 94.483 60.222 62.988 90.332 146.402 90.332 250.244 0 103.516-30.11 186.767-90.332 249.756-60.221 62.988-139.16 94.482-236.816 94.482-98.308 0-177.572-31.412-237.793-94.238-60.222-62.826-90.332-146.158-90.332-250 0-103.842 30.192-187.256 90.576-250.244 60.384-62.989 139.566-94.483 237.549-94.483z" fill="#13227a" p-id="13914"></path><path d="M471.078 402.93h82.031c31.576 0 52.572-4.476 62.989-13.428 10.416-8.952 16.438-26.774 18.066-53.467h23.926v207.031h-23.926c-1.628-26.367-7.568-44.108-17.822-53.222-10.254-9.115-31.331-13.672-63.233-13.672h-82.03c-32.553 0-54.037 4.557-64.454 13.672-10.417 9.114-16.276 26.855-17.578 53.222H365.12v-207.03h23.926c1.302 26.366 7.161 44.107 17.578 53.222 10.417 9.114 31.9 13.672 64.453 13.672z m254.883 41.992c0-94.076-19.368-169.108-58.106-225.098-38.737-55.99-90.657-83.984-155.761-83.984-65.756 0-118.083 27.913-156.983 83.74-38.9 55.827-58.35 130.94-58.35 225.342 0 94.076 19.45 168.945 58.35 224.61 38.9 55.664 91.227 83.495 156.983 83.495 65.104 0 117.024-27.831 155.761-83.496 38.738-55.664 58.106-130.533 58.106-224.61zM512.094 100.195c97.656 0 176.595 31.494 236.816 94.483 60.222 62.988 90.332 146.402 90.332 250.244 0 103.516-30.11 186.767-90.332 249.756-60.221 62.988-139.16 94.482-236.816 94.482-98.308 0-177.572-31.412-237.793-94.238-60.222-62.826-90.332-146.158-90.332-250 0-103.842 30.192-187.256 90.576-250.244 60.384-62.989 139.566-94.483 237.549-94.483z" fill="#13227a" p-id="13915"></path></svg>